<?xml version="1.0" standalone="no"?>
<!DOCTYPE svg PUBLIC "-//W3C//DTD SVG 20010904//EN"
 "http://www.w3.org/TR/2001/REC-SVG-20010904/DTD/svg10.dtd">
<svg version="1.0" xmlns="http://www.w3.org/2000/svg"
 width="625.000000pt" height="381.000000pt" viewBox="0 0 625.000000 381.000000"
 preserveAspectRatio="xMidYMid meet">

<g transform="translate(0.000000,381.000000) scale(0.100000,-0.100000)"
fill="#000000" stroke="none">
<path d="M1360 2514 l0 -185 -67 6 c-137 13 -278 -32 -362 -116 -89 -89 -134
-239 -112 -373 28 -170 109 -264 266 -312 75 -23 319 -26 443 -5 l82 13 0 579
0 579 -125 0 -125 0 0 -186z m-7 -391 c4 -2 7 -94 7 -203 l0 -200 -26 -6 c-42
-11 -131 3 -173 26 -72 41 -106 145 -81 250 16 68 70 124 132 139 39 9 122 6
141 -6z"/>
<path d="M1760 2575 l0 -125 125 0 125 0 0 125 0 125 -125 0 -125 0 0 -125z"/>
<path d="M2361 2325 c-40 -7 -100 -23 -132 -35 l-59 -22 0 -100 c0 -97 0 -99
21 -87 82 43 265 78 315 59 36 -14 44 -26 44 -72 0 -35 -2 -37 -37 -43 -188
-30 -245 -47 -313 -96 -56 -41 -82 -100 -82 -190 -1 -100 29 -154 107 -194 58
-30 59 -30 229 -30 94 0 206 4 249 8 l77 9 0 309 c0 195 -4 327 -11 354 -13
53 -69 108 -126 125 -61 18 -201 21 -282 5z m199 -549 l0 -84 -64 -7 c-105
-12 -156 12 -156 72 0 52 89 100 188 102 l32 1 0 -84z"/>
<path d="M3145 2329 c-38 -5 -106 -17 -150 -27 l-80 -17 -3 -383 -2 -382 125
0 125 0 0 299 c0 241 3 300 13 304 35 13 125 16 157 4 65 -23 70 -46 70 -344
l0 -263 126 0 125 0 -3 313 c-3 303 -4 313 -26 359 -47 96 -135 138 -302 143
-58 2 -136 -1 -175 -6z"/>
<path d="M4180 2329 c-307 -38 -464 -205 -447 -475 16 -261 231 -397 505 -318
22 6 22 5 16 -37 -9 -66 -41 -126 -79 -149 -78 -48 -241 -46 -365 4 l-61 25 3
-116 3 -116 40 -16 c31 -12 82 -15 220 -16 165 0 185 2 237 23 67 27 148 97
184 158 54 92 58 122 60 489 l2 340 26 -3 c24 -3 30 5 67 84 28 63 36 89 28
95 -39 24 -326 42 -439 28z m72 -389 c7 -156 5 -197 -5 -208 -21 -21 -130 -17
-174 5 -54 28 -83 89 -83 174 0 79 11 113 48 152 35 37 74 57 131 67 81 14 75
27 83 -190z"/>
<path d="M4900 2326 c-148 -41 -246 -149 -279 -304 -36 -170 24 -368 135 -444
90 -62 129 -73 259 -73 157 1 213 21 301 109 69 69 100 135 116 252 12 81 -8
207 -43 276 -47 91 -136 160 -238 184 -69 17 -191 16 -251 0z m186 -202 c21
-10 45 -34 62 -62 23 -41 26 -57 27 -137 0 -77 -4 -98 -25 -139 -59 -114 -199
-114 -255 -1 -27 55 -33 177 -11 243 32 96 117 136 202 96z"/>
<path d="M1760 1978 c0 -356 -7 -438 -42 -520 -24 -55 -88 -119 -153 -150 -25
-12 -45 -24 -44 -27 0 -4 51 -30 114 -60 l113 -54 47 28 c72 42 119 89 154
155 56 104 61 152 61 583 l0 387 -125 0 -125 0 0 -342z"/>
</g>
</svg>
