<?xml version="1.0" standalone="no"?>
<!DOCTYPE svg PUBLIC "-//W3C//DTD SVG 20010904//EN"
 "http://www.w3.org/TR/2001/REC-SVG-20010904/DTD/svg10.dtd">
<svg version="1.0" xmlns="http://www.w3.org/2000/svg"
 width="5000.000000pt" height="2500.000000pt" viewBox="0 0 5000.000000 2500.000000"
 preserveAspectRatio="xMidYMid meet">

<g transform="translate(0.000000,2500.000000) scale(0.100000,-0.100000)"
fill="#000000" stroke="none">
<path d="M21456 24981 c-3 -4 -899 -4442 -1991 -9862 -1092 -5420 -1989 -9864
-1992 -9876 l-5 -23 1909 0 1910 0 35 173 c19 94 529 2638 1133 5652 604 3014
1100 5482 1102 5484 5 7 2979 -20 3273 -29 295 -10 473 -26 670 -61 324 -56
593 -154 795 -287 86 -57 218 -187 272 -267 243 -362 301 -907 178 -1671 -18
-110 -1780 -8854 -1809 -8976 -4 -17 93 -18 1933 -18 l1937 0 932 4612 c513
2537 944 4678 957 4758 173 1020 176 1867 9 2547 -52 213 -126 418 -219 608
-184 377 -403 639 -753 900 -604 451 -1419 765 -2422 934 -357 60 -637 91
-1205 133 -109 8 -761 13 -2035 17 l-1876 6 533 2595 c293 1427 535 2610 539
2628 l6 32 -1905 0 c-1049 0 -1908 -4 -1911 -9z"/>
<path d="M3955 19718 c-2 -7 -482 -2396 -1065 -5308 -584 -2912 -1472 -7346
-1974 -9853 l-913 -4557 1923 0 1923 0 6 33 c4 17 239 1191 524 2607 l517
2575 1975 6 c1346 4 2027 9 2139 17 528 38 860 72 1245 128 496 73 1079 192
1433 294 803 232 1571 675 2317 1339 165 146 580 562 756 757 545 604 969
1222 1319 1924 528 1060 827 2004 989 3121 152 1049 168 1807 55 2589 -161
1122 -604 2065 -1308 2788 -631 647 -1414 1072 -2437 1322 -436 106 -812 161
-1444 212 -227 18 -7974 24 -7980 6z m5345 -3138 c975 -38 1749 -139 2484
-326 470 -119 656 -211 872 -428 359 -360 524 -893 524 -1690 0 -438 -48 -909
-145 -1423 -384 -2030 -1060 -3267 -2055 -3762 -205 -101 -379 -158 -810 -266
-745 -185 -1565 -299 -2545 -355 -699 -39 -1934 -41 -2068 -2 l-23 7 826 4110
826 4110 465 7 c255 4 511 12 569 16 149 13 779 14 1080 2z"/>
<path d="M36756 19706 c-3 -13 -647 -3225 -1431 -7137 -2320 -11572 -2515
-12548 -2515 -12559 0 -7 633 -10 1919 -10 1820 0 1920 1 1925 18 3 9 235
1162 516 2562 282 1400 516 2566 522 2593 l10 47 1826 0 c1807 0 2055 4 2512
36 596 41 1239 130 1807 249 665 140 1031 259 1498 490 618 304 1164 702 1739
1265 925 906 1483 1698 2000 2840 333 734 574 1491 715 2246 29 157 95 591
126 829 90 707 97 1484 19 2100 -228 1801 -1177 3166 -2679 3853 -776 356
-1642 543 -2735 592 -142 6 -1623 10 -3996 10 l-3772 0 -6 -24z m5344 -3126
c626 -24 1123 -70 1632 -150 485 -77 1033 -208 1282 -306 500 -199 812 -651
925 -1344 34 -206 45 -371 45 -655 -1 -460 -48 -897 -159 -1481 -251 -1311
-638 -2298 -1162 -2963 -107 -136 -388 -412 -513 -505 -267 -198 -485 -301
-872 -410 -1165 -331 -2560 -481 -4303 -463 -447 5 -614 13 -632 30 -3 4 1550
7760 1638 8178 l10 46 482 7 c265 4 520 11 567 15 129 12 773 12 1060 1z"/>
</g>
</svg>
