<?xml version="1.0" standalone="no"?>
<!DOCTYPE svg PUBLIC "-//W3C//DTD SVG 20010904//EN"
 "http://www.w3.org/TR/2001/REC-SVG-20010904/DTD/svg10.dtd">
<svg version="1.0" xmlns="http://www.w3.org/2000/svg"
 width="1024.000000pt" height="1024.000000pt" viewBox="0 0 1024.000000 1024.000000"
 preserveAspectRatio="xMidYMid meet">
<metadata>
Created by potrace 1.16, written by Peter Selinger 2001-2019
</metadata>
<g transform="translate(0.000000,1024.000000) scale(0.100000,-0.100000)"
fill="#000000" stroke="none">
<path d="M4825 9569 c-659 -52 -1310 -237 -1668 -472 -118 -78 -121 -83 -140
-178 -44 -227 -57 -442 -57 -941 l0 -408 1300 0 1300 0 0 -110 0 -110 -1367
-1 c-753 -1 -1640 -5 -1973 -9 -563 -7 -611 -9 -693 -28 -600 -143 -1014 -723
-1112 -1558 -17 -149 -20 -482 -5 -635 53 -535 249 -1043 543 -1410 353 -438
832 -681 1414 -715 139 -8 127 -16 138 101 11 120 74 552 106 730 36 204 88
425 130 555 129 402 381 659 769 785 328 106 671 125 1519 84 458 -22 857 -22
1051 1 223 26 452 85 590 153 75 37 176 131 237 222 197 293 333 814 384 1465
15 196 15 660 0 850 -30 378 -102 711 -197 918 -179 390 -672 633 -1434 707
-157 16 -661 18 -835 4z m-720 -598 c373 -133 480 -606 200 -886 -104 -104
-228 -155 -378 -155 -207 0 -393 117 -481 303 -76 159 -75 305 1 465 62 132
200 246 344 287 77 21 235 15 314 -14z"/>
<path d="M7656 7199 c-3 -30 -15 -144 -26 -254 -46 -442 -117 -839 -191 -1071
-175 -546 -535 -810 -1209 -886 -168 -18 -683 -16 -1120 6 -629 31 -1014 16
-1302 -53 -109 -26 -266 -82 -326 -117 -267 -156 -471 -642 -562 -1336 -74
-569 -62 -1224 30 -1673 87 -426 210 -641 461 -807 246 -163 537 -259 969
-319 211 -30 732 -38 995 -15 686 59 1309 241 1669 486 44 30 87 67 93 81 17
35 50 234 64 384 6 66 13 328 16 582 l6 463 -1307 0 -1306 0 0 110 0 110 1373
1 c754 1 1667 4 2027 8 l655 8 100 26 c553 148 940 711 1057 1537 8 63 13 194
12 385 0 249 -3 310 -22 430 -115 724 -441 1283 -947 1625 -296 200 -660 313
-1077 336 l-126 7 -6 -54z m-1331 -4823 c91 -33 153 -72 215 -135 100 -103
150 -226 150 -374 0 -337 -314 -594 -642 -526 -194 40 -362 203 -413 399 -22
85 -16 221 14 305 98 274 410 428 676 331z"/>
</g>
</svg>
